<svg xmlns="http://www.w3.org/2000/svg" width="1536" height="1024" viewBox="0 0 1536 1024" role="img" aria-label="EcoPro supporting issue image">
  <defs>
    <linearGradient id="bg2" x1="0" y1="0" x2="1" y2="1">
      <stop offset="0%" stop-color="#fff7ed"/>
      <stop offset="100%" stop-color="#eef2ff"/>
    </linearGradient>
    <linearGradient id="dark2" x1="0" y1="0" x2="1" y2="1">
      <stop offset="0%" stop-color="#111827"/>
      <stop offset="100%" stop-color="#1f2937"/>
    </linearGradient>
  </defs>
  <rect width="1536" height="1024" fill="url(#bg2)"/>
  <rect x="76" y="80" width="1384" height="864" rx="34" fill="white" opacity="0.96"/>
  <rect x="110" y="116" width="1316" height="230" rx="30" fill="url(#dark2)"/>
  <text x="164" y="204" fill="#fb7185" font-family="Arial, Helvetica, sans-serif" font-size="34">EcoPro 086520</text>
  <text x="164" y="276" fill="white" font-family="Arial, Helvetica, sans-serif" font-size="70" font-weight="700">Market Fear vs Earnings Recovery</text>
  <text x="164" y="324" fill="#cbd5e1" font-family="Arial, Helvetica, sans-serif" font-size="30">A battery materials name caught in a broad KOSDAQ washout</text>
  <rect x="132" y="396" width="604" height="488" rx="30" fill="#fff1f2"/>
  <text x="174" y="476" fill="#9f1239" font-family="Arial, Helvetica, sans-serif" font-size="42" font-weight="700">Pressure</text>
  <path d="M182 690 L292 652 L410 710 L532 630 L652 760" fill="none" stroke="#e11d48" stroke-width="14" stroke-linecap="round" stroke-linejoin="round"/>
  <circle cx="652" cy="760" r="16" fill="#be123c"/>
  <text x="176" y="546" fill="#4b5563" font-family="Arial, Helvetica, sans-serif" font-size="30">KOSDAQ -5.14%</text>
  <text x="176" y="592" fill="#4b5563" font-family="Arial, Helvetica, sans-serif" font-size="30">EcoPro -9.21%</text>
  <text x="176" y="826" fill="#6b7280" font-family="Arial, Helvetica, sans-serif" font-size="28">High-beta names moved first when risk appetite broke.</text>
  <rect x="800" y="396" width="604" height="488" rx="30" fill="#ecfeff"/>
  <text x="842" y="476" fill="#155e75" font-family="Arial, Helvetica, sans-serif" font-size="42" font-weight="700">Recovery</text>
  <rect x="858" y="540" width="88" height="176" rx="20" fill="#0ea5e9"/>
  <rect x="976" y="492" width="88" height="224" rx="20" fill="#14b8a6"/>
  <rect x="1094" y="438" width="88" height="278" rx="20" fill="#22c55e"/>
  <rect x="1212" y="394" width="88" height="322" rx="20" fill="#84cc16"/>
  <text x="844" y="784" fill="#475569" font-family="Arial, Helvetica, sans-serif" font-size="28">Lithium pricing improved</text>
  <text x="844" y="826" fill="#475569" font-family="Arial, Helvetica, sans-serif" font-size="28">Margins recovered from a weak base</text>
  <text x="844" y="868" fill="#475569" font-family="Arial, Helvetica, sans-serif" font-size="28">Hungary and Indonesia remain key watchpoints</text>
</svg>
